<?xml version="1.0" encoding="utf-8"?>
<!-- Generator: Adobe Illustrator 19.0.0, SVG Export Plug-In . SVG Version: 6.00 Build 0)  -->
<svg version="1.1" id="Layer_1" xmlns="http://www.w3.org/2000/svg" xmlns:xlink="http://www.w3.org/1999/xlink" x="0px" y="0px"
	 viewBox="0 220.6 1920 652.3" style="enable-background:new 0 220.6 1920 652.3;" xml:space="preserve">
<style type="text/css">
	.st0{fill:none;}
	.st1{fill:#FFBB12;stroke:#000000;stroke-miterlimit:10;}
	.st2{fill:#007407;stroke:#000000;stroke-miterlimit:10;}
	.st3{fill:#FD0100;stroke:#000000;stroke-miterlimit:10;}
</style>
<rect id="XMLID_14_" x="480.5" y="220.6" width="15.5" height="178.9"/>
<g>
	<path d="M469.6,220.6h36.8"/>
	<path d="M488,251.3c9.6,0,17.6-6.4,20.1-15.2h-40.2C470.4,244.9,478.5,251.3,488,251.3z"/>
	<polygon points="1920,220.6 506.4,220.6 469.6,220.6 0,220.6 0,236.1 467.9,236.1 508.1,236.1 1920,236.1 	"/>
</g>
<g id="XMLID_17_">
	<path id="XMLID_43_" d="M385,725.3h-24.7c-2.4,0-4.2,2.1-3.9,4.4l15.5,117.4c0.3,2,1.9,3.4,3.9,3.4h9.2"/>
	<path id="XMLID_42_" d="M385,725.8c0,0-2.6,0-7.1,0c-2.3,0-5,0-8.1,0c-1.6,0-3.2,0-5,0c-0.9,0-1.8,0-2.7,0c-0.5,0-0.9,0-1.4,0
		s-0.9,0-1.3,0.1c-1.6,0.4-2.8,2.2-2.4,4c0.3,2.1,0.5,4.2,0.8,6.4c0.6,4.4,1.2,9,1.8,13.8c1.3,9.6,2.6,19.8,3.9,30
		c0.7,5.1,1.3,10.2,2,15.2c0.6,5,1.2,10,1.8,14.8c0.5,4.8,1.1,9.4,1.6,13.8c0.5,4.4,1.1,8.5,1.5,12.4c0.5,3.8,1,7.3,1.4,10.4
		c0.1,1.6,1.1,2.8,2.4,3.3c0.6,0.3,1.2,0.3,1.8,0.3c0.6,0,1.2,0,1.8,0c4.5-0.1,7.1-0.3,7.1-0.3v1c0,0-2.6-0.1-7.1-0.3
		c-0.6,0-1.2,0-1.8,0c-0.6,0-1.3-0.1-2-0.4c-1.3-0.6-2.3-2-2.4-3.6c-0.4-3.1-0.8-6.6-1.3-10.4c-0.5-3.8-1.1-8-1.7-12.3
		c-0.7-4.4-1.3-9-2.1-13.8c-0.7-4.8-1.4-9.7-2.1-14.7s-1.3-10.1-2-15.2c-1.4-10.2-2.7-20.4-4-30c-0.6-4.8-1.3-9.4-1.8-13.8
		c-0.3-2.2-0.6-4.3-0.9-6.4c-0.1-0.5-0.1-1.2,0-1.7c0.1-0.6,0.3-1.1,0.6-1.6c0.6-1,1.6-1.7,2.7-2c0.6-0.2,1.1-0.2,1.6-0.2
		s0.9,0,1.4,0c0.9,0,1.8,0,2.7,0c1.8,0,3.4,0,5,0c3.1,0,5.9,0,8.1,0c4.5,0,7.1,0,7.1,0v1.2H385z"/>
</g>
<g id="XMLID_9_">
	<path id="XMLID_40_" d="M385,572.7h-24.7c-2.4,0-4.2,2.1-3.9,4.4l15.5,117.5c0.3,2,1.9,3.4,3.9,3.4h9.2"/>
	<path id="XMLID_39_" d="M385,573.2c0,0-2.6,0-7.1,0c-2.3,0-5,0-8.1,0c-1.6,0-3.2,0-5,0c-0.9,0-1.8,0-2.7,0c-0.5,0-0.9,0-1.4,0
		s-0.9,0-1.3,0.1c-1.6,0.4-2.8,2.2-2.4,4c0.3,2.1,0.5,4.2,0.8,6.4c0.6,4.4,1.2,9,1.8,13.8c1.3,9.6,2.6,19.8,3.9,30
		c0.7,5.1,1.3,10.2,2,15.2c0.6,5,1.2,10,1.8,14.8c0.5,4.8,1.1,9.4,1.6,13.8c0.5,4.4,1.1,8.5,1.5,12.4c0.5,3.8,1,7.3,1.4,10.4
		c0.1,1.6,1.1,2.8,2.4,3.3c0.6,0.3,1.2,0.3,1.8,0.3c0.6,0,1.2,0,1.8,0c4.5-0.1,7.1-0.3,7.1-0.3v1c0,0-2.6-0.1-7.1-0.3
		c-0.6,0-1.2,0-1.8,0c-0.6,0-1.3-0.1-2-0.4c-1.3-0.6-2.3-2-2.4-3.6c-0.4-3.1-0.8-6.6-1.3-10.4s-1.1-8-1.7-12.3
		c-0.7-4.4-1.3-9-2.1-13.8c-0.7-4.8-1.4-9.7-2.1-14.7s-1.3-10.1-2-15.2c-1.4-10.2-2.7-20.4-4-30c-0.6-4.8-1.3-9.4-1.8-13.8
		c-0.3-2.2-0.6-4.3-0.9-6.4c-0.1-0.5-0.1-1.2,0-1.7c0.1-0.6,0.3-1.1,0.6-1.6c0.6-1,1.6-1.7,2.7-2c0.6-0.2,1.1-0.2,1.6-0.2
		s0.9,0,1.4,0c0.9,0,1.8,0,2.7,0c1.8,0,3.4,0,5,0c3.1,0,5.9,0,8.1,0c4.5,0,7.1,0,7.1,0v1.2H385z"/>
</g>
<g id="XMLID_4_">
	<path id="XMLID_37_" d="M385,421h-24.7c-2.4,0-4.2,2.1-3.9,4.4l15.5,117.4c0.3,2,1.9,3.4,3.9,3.4h9.2"/>
	<path id="XMLID_36_" d="M385,421.5c0,0-2.6,0-7.1,0c-2.3,0-5,0-8.1,0c-1.6,0-3.2,0-5,0c-0.9,0-1.8,0-2.7,0c-0.5,0-0.9,0-1.4,0
		s-0.9,0-1.3,0.1c-1.6,0.4-2.8,2.2-2.4,4c0.3,2.1,0.5,4.2,0.8,6.4c0.6,4.4,1.2,9,1.8,13.8c1.3,9.6,2.6,19.8,3.9,30
		c0.7,5.1,1.3,10.2,2,15.2c0.6,5,1.2,10,1.8,14.8c0.5,4.8,1.1,9.4,1.6,13.8s1.1,8.5,1.5,12.4c0.5,3.8,1,7.3,1.4,10.4
		c0.1,1.6,1.1,2.8,2.4,3.3c0.6,0.3,1.2,0.3,1.8,0.3c0.6,0,1.2,0,1.8,0c4.5-0.1,7.1-0.3,7.1-0.3v1c0,0-2.6-0.1-7.1-0.3
		c-0.6,0-1.2,0-1.8,0c-0.6,0-1.3-0.1-2-0.4c-1.3-0.6-2.3-2-2.4-3.6c-0.4-3.1-0.8-6.6-1.3-10.4c-0.5-3.8-1.1-8-1.7-12.3
		c-0.7-4.4-1.3-9-2.1-13.8c-0.7-4.8-1.4-9.7-2.1-14.7s-1.3-10.1-2-15.2c-1.4-10.2-2.7-20.4-4-30c-0.6-4.8-1.3-9.4-1.8-13.8
		c-0.3-2.2-0.6-4.3-0.9-6.4c-0.1-0.5-0.1-1.2,0-1.7c0.1-0.6,0.3-1.1,0.6-1.6c0.6-1,1.6-1.7,2.7-2c0.6-0.2,1.1-0.2,1.6-0.2
		s0.9,0,1.4,0c0.9,0,1.8,0,2.7,0c1.8,0,3.4,0,5,0c3.1,0,5.9,0,8.1,0c4.5,0,7.1,0,7.1,0v1.2H385z"/>
</g>
<g id="XMLID_53_">
	<path id="XMLID_26_" d="M590.6,725.8h24.7c2.4,0,4.2,2.1,3.9,4.4l-15.6,117.4c-0.3,2-1.9,3.4-3.9,3.4h-9.2"/>
	<path id="XMLID_25_" d="M590.6,725.3c0,0,2.6,0,7.1,0c2.3,0,5,0,8.1,0c1.6,0,3.2,0,5,0c0.9,0,1.8,0,2.7,0c0.5,0,0.9,0,1.4,0
		c0.4,0,1,0,1.6,0.2c1.1,0.3,2.1,1,2.7,2c0.3,0.5,0.5,1,0.6,1.6s0.1,1.2,0,1.7c-0.3,2.1-0.6,4.2-0.9,6.4c-0.6,4.4-1.2,9-1.8,13.8
		c-1.3,9.6-2.6,19.8-4,30c-0.7,5.1-1.4,10.2-2,15.2c-0.7,5-1.4,10-2.1,14.7c-0.7,4.8-1.4,9.4-2.1,13.8c-0.7,4.4-1.2,8.5-1.7,12.3
		s-0.9,7.3-1.3,10.4c-0.1,1.6-1.1,3-2.4,3.6c-0.6,0.3-1.3,0.4-2,0.4c-0.6,0-1.2,0-1.8,0c-4.5,0.1-7.1,0.3-7.1,0.3v-1
		c0,0,2.6,0.1,7.1,0.3c0.6,0,1.2,0,1.8,0s1.2,0,1.8-0.3c1.2-0.5,2.3-1.7,2.4-3.3c0.4-3.1,0.9-6.6,1.4-10.4c0.5-3.8,1-8,1.5-12.4
		s1-9,1.6-13.8s1.2-9.7,1.8-14.8c0.7-5,1.3-10.1,2-15.2c1.3-10.2,2.7-20.4,3.9-30c0.6-4.8,1.2-9.4,1.8-13.8c0.3-2.2,0.6-4.3,0.8-6.4
		c0.4-1.9-0.8-3.6-2.4-4c-0.4-0.1-0.8-0.1-1.3-0.1s-0.9,0-1.4,0c-0.9,0-1.8,0-2.7,0c-1.8,0-3.4,0-5,0c-3.1,0-5.9,0-8.1,0
		c-4.5,0-7.1,0-7.1,0v-1.2H590.6z"/>
</g>
<g id="XMLID_49_">
	<path id="XMLID_23_" d="M590.6,573.2h24.7c2.4,0,4.2,2.1,3.9,4.4L603.7,695c-0.3,2-1.9,3.4-3.9,3.4h-9.2"/>
	<path id="XMLID_22_" d="M590.6,572.7c0,0,2.6,0,7.1,0c2.3,0,5,0,8.1,0c1.6,0,3.2,0,5,0c0.9,0,1.8,0,2.7,0c0.5,0,0.9,0,1.4,0
		c0.4,0,1,0,1.6,0.2c1.1,0.3,2.1,1,2.7,2c0.3,0.5,0.5,1,0.6,1.6s0.1,1.2,0,1.7c-0.3,2.1-0.6,4.2-0.9,6.4c-0.6,4.4-1.2,9-1.8,13.8
		c-1.3,9.6-2.6,19.8-4,30c-0.7,5.1-1.4,10.2-2,15.2c-0.7,5-1.4,10-2.1,14.7c-0.7,4.8-1.4,9.4-2.1,13.8c-0.7,4.4-1.2,8.5-1.7,12.3
		c-0.5,3.8-0.9,7.3-1.3,10.4c-0.1,1.6-1.1,3-2.4,3.6c-0.6,0.3-1.3,0.4-2,0.4c-0.6,0-1.2,0-1.8,0c-4.5,0.1-7.1,0.3-7.1,0.3v-1
		c0,0,2.6,0.1,7.1,0.3c0.6,0,1.2,0,1.8,0s1.2,0,1.8-0.3c1.2-0.5,2.3-1.7,2.4-3.3c0.4-3.1,0.9-6.6,1.4-10.4c0.5-3.8,1-8,1.5-12.4
		s1-9,1.6-13.8s1.2-9.7,1.8-14.8c0.7-5,1.3-10.1,2-15.2c1.3-10.2,2.7-20.4,3.9-30c0.6-4.8,1.2-9.4,1.8-13.8c0.3-2.2,0.6-4.3,0.8-6.4
		c0.4-1.9-0.8-3.6-2.4-4c-0.4-0.1-0.8-0.1-1.3-0.1s-0.9,0-1.4,0c-0.9,0-1.8,0-2.7,0c-1.8,0-3.4,0-5,0c-3.1,0-5.9,0-8.1,0
		c-4.5,0-7.1,0-7.1,0v-1.2H590.6z"/>
</g>
<g id="XMLID_45_">
	<path id="XMLID_20_" d="M590.6,421.5h24.7c2.4,0,4.2,2.1,3.9,4.4l-15.5,117.4c-0.3,2-1.9,3.4-3.9,3.4h-9.2"/>
	<path id="XMLID_19_" d="M590.6,421c0,0,2.6,0,7.1,0c2.3,0,5,0,8.1,0c1.6,0,3.2,0,5,0c0.9,0,1.8,0,2.7,0c0.5,0,0.9,0,1.4,0
		c0.4,0,1,0,1.6,0.2c1.1,0.3,2.1,1,2.7,2c0.3,0.5,0.5,1,0.6,1.6c0.1,0.6,0.1,1.2,0,1.7c-0.3,2.1-0.6,4.2-0.9,6.4
		c-0.6,4.4-1.2,9-1.8,13.8c-1.3,9.6-2.6,19.8-4,30c-0.7,5.1-1.4,10.2-2,15.2c-0.7,5-1.4,10-2.1,14.7c-0.7,4.8-1.4,9.4-2.1,13.8
		c-0.7,4.4-1.2,8.5-1.7,12.3s-0.9,7.3-1.3,10.4c-0.1,1.6-1.1,3-2.4,3.6c-0.6,0.3-1.3,0.4-2,0.4c-0.6,0-1.2,0-1.8,0
		c-4.5,0.1-7.1,0.3-7.1,0.3v-1c0,0,2.6,0.1,7.1,0.3c0.6,0,1.2,0,1.8,0s1.2,0,1.8-0.3c1.2-0.5,2.3-1.7,2.4-3.3
		c0.4-3.1,0.9-6.6,1.4-10.4s1-8,1.5-12.4c0.5-4.4,1-9,1.6-13.8s1.2-9.7,1.8-14.8c0.7-5,1.3-10.1,2-15.2c1.3-10.2,2.7-20.4,3.9-30
		c0.6-4.8,1.2-9.4,1.8-13.8c0.3-2.2,0.6-4.3,0.8-6.4c0.4-1.9-0.8-3.6-2.4-4c-0.4-0.1-0.8-0.1-1.3-0.1s-0.9,0-1.4,0
		c-0.9,0-1.8,0-2.7,0c-1.8,0-3.4,0-5,0c-3.1,0-5.9,0-8.1,0c-4.5,0-7.1,0-7.1,0V421H590.6z"/>
</g>
<g id="XMLID_44_">
	<path id="XMLID_47_" class="st0" d="M563,636.8c0-40.2-32.6-72.8-72.8-72.8h-5.3c-40.2,0-72.8,32.6-72.8,72.8v0.3
		c0,40.2,32.6,72.8,72.8,72.8h5.3c40.2,0,72.8-32.6,72.8-72.8V636.8z"/>
	<path id="XMLID_48_" class="st0" d="M562,788.8c0-40.2-32.6-72.8-72.8-72.8h-4.3c-40.2,0-72.8,32.6-72.8,72.8v0.3
		c0,40.2,32.6,72.8,72.8,72.8h4.3c40.2,0,72.8-32.6,72.8-72.8V788.8z"/>
	<path id="XMLID_50_" class="st0" d="M504.1,412.8c-3.8,4.5-9.3,7.5-15.6,7.6c-6.6,0.1-12.7-2.9-16.6-7.6
		c-33.9,6.2-59.8,35.9-59.8,71.6v0.3c0,40.2,33.1,73.3,73.3,73.3h5.3c40.2,0,72.3-33.1,72.3-73.3v-0.3
		C563,448.8,537.8,419.2,504.1,412.8z"/>
	<path id="XMLID_51_" d="M509.1,399.4L509.1,399.4c-0.2-11.6-9.7-20.6-21.2-20.5c-11.4,0.2-20.5,9.1-20.5,21.1h41.7
		C509.1,399,509.1,399.5,509.1,399.4z"/>
	<path id="XMLID_56_" d="M551.9,400h-42.7h-41.7h-43.3c-16.4,0-30.1,12.8-30.1,29.1v413.7c0,16.4,13.8,30.1,30.1,30.1h127.7
		c16.4,0,29.1-13.8,29.1-30.1V429.1C581,412.8,568.2,400,551.9,400z M562,789.2c0,40.2-32.6,72.8-72.8,72.8h-4.3
		c-40.2,0-72.8-32.6-72.8-72.8v-0.3c0-40.2,32.6-72.8,72.8-72.8h4.3c40.2,0,72.8,32.6,72.8,72.8V789.2z M563,637.2
		c0,40.2-32.6,72.8-72.8,72.8h-5.3c-40.2,0-72.8-32.6-72.8-72.8v-0.3c0-40.2,32.6-72.8,72.8-72.8h5.3c40.2,0,72.8,32.6,72.8,72.8
		V637.2z M563,484.7c0,40.2-32.1,73.3-72.3,73.3h-5.3c-40.2,0-73.3-33.1-73.3-73.3v-0.3c0-35.7,26-65.2,59.9-71.4
		c4.3-0.8,8.9-1,13.5-1h5.3c4.7,0,9,0.2,13.4,1c33.7,6.4,58.9,35.7,58.9,71.3v0.4H563z"/>
</g>
<path id="XMLID_1_" class="st1" d="M488.3,698.4L488.3,698.4c-34.1,0-61.7-27.6-61.7-61.7v-1.9c0-34.1,27.6-61.7,61.7-61.7l0,0
	c34.1,0,61.7,27.6,61.7,61.7v1.9C550,670.8,522.3,698.4,488.3,698.4z"/>
<path id="XMLID_2_" class="st2" d="M488.3,851L488.3,851c-34.1,0-61.7-27.6-61.7-61.7v-1.9c0-34.1,27.6-61.7,61.7-61.7l0,0
	c34.1,0,61.7,27.6,61.7,61.7v1.9C550,823.4,522.3,851,488.3,851z"/>
<path id="XMLID_3_" class="st3" d="M488.3,546.7L488.3,546.7c-34.1,0-61.7-27.6-61.7-61.7v-1.9c0-34.1,27.6-61.7,61.7-61.7l0,0
	c34.1,0,61.7,27.6,61.7,61.7v1.9C550,519.1,522.3,546.7,488.3,546.7z"/>
</svg>
